<svg width="72" height="72" viewBox="0 0 72 72" fill="none" xmlns="http://www.w3.org/2000/svg">
<g clip-path="url(#clip0_2343_537)">
<path d="M36 72C55.8822 72 72 55.8822 72 36C72 16.1177 55.8822 0 36 0C16.1177 0 0 16.1177 0 36C0 55.8822 16.1177 72 36 72Z" fill="url(#paint0_linear_2343_537)"/>
<path opacity="0.6" d="M49.7176 32.7332L50.092 33.3075C54.3145 39.785 53.3716 48.2684 47.8247 53.7034C44.5616 56.9006 40.2848 58.4996 36.0078 58.5C36.0078 58.5 36.0078 58.5 49.7176 32.7332Z" fill="white"/>
<path opacity="0.2" d="M36.0062 40.5644L49.716 32.7332C36.0062 58.5 36.0062 58.5 36.0062 58.5C36.0062 52.8882 36.0062 46.4577 36.0062 40.5644Z" fill="white"/>
<path d="M22.2824 32.7332L21.908 33.3075C17.6855 39.785 18.6284 48.2684 24.1753 53.7034C27.4385 56.9006 31.7153 58.4996 35.9922 58.5C35.9922 58.5 35.9922 58.5 22.2824 32.7332Z" fill="white"/>
<path opacity="0.6" d="M35.9884 40.5644L22.2784 32.7332C35.9884 58.5 35.9884 58.5 35.9884 58.5C35.9884 52.8882 35.9884 46.4577 35.9884 40.5644Z" fill="white"/>
<path opacity="0.2" d="M36.0106 23.0698V36.5764L47.8201 29.8275L36.0106 23.0698Z" fill="white"/>
<path opacity="0.6" d="M36.0073 23.0698L24.1892 29.8273L36.0073 36.5764V23.0698Z" fill="white"/>
<path d="M36.0073 11.7105L24.1892 29.8315L36.0073 23.055V11.7105Z" fill="white"/>
<path opacity="0.6" d="M36.0106 23.0531L47.8291 29.8299L36.0106 11.7V23.0531Z" fill="white"/>
</g>
<defs>
<linearGradient id="paint0_linear_2343_537" x1="-1.00049" y1="-3.44931e-06" x2="70.9595" y2="73.5392" gradientUnits="userSpaceOnUse">
<stop stop-color="#FFAC91"/>
<stop offset="0.5" stop-color="#A276FF"/>
<stop offset="1" stop-color="#5BFFF2"/>
</linearGradient>
<clipPath id="clip0_2343_537">
<rect width="72" height="72" fill="white"/>
</clipPath>
</defs>
</svg>
